<?xml version="1.0" standalone="no"?>
<!DOCTYPE svg PUBLIC "-//W3C//DTD SVG 20010904//EN"
 "http://www.w3.org/TR/2001/REC-SVG-20010904/DTD/svg10.dtd">
<svg version="1.0" xmlns="http://www.w3.org/2000/svg"
 width="1024.000000pt" height="1024.000000pt" viewBox="0 0 1024.000000 1024.000000"
 preserveAspectRatio="xMidYMid meet">

<g transform="translate(0.000000,1024.000000) scale(0.100000,-0.100000)"
fill="#000000" stroke="none">
<path d="M0 5120 l0 -5120 5120 0 5120 0 0 5120 0 5120 -5120 0 -5120 0 0
-5120z m5242 1930 c126 -12 346 -62 472 -108 93 -33 243 -116 346 -191 56 -40
188 -154 189 -162 1 -3 -56 -9 -126 -13 -193 -11 -221 -17 -260 -60 -21 -23
-33 -46 -33 -64 0 -15 -5 -33 -12 -40 -7 -7 -10 -13 -7 -14 2 0 483 -4 1069
-7 l1065 -6 37 -23 c21 -13 47 -36 58 -52 20 -28 20 -31 5 -60 -33 -65 188
-60 -2900 -60 -3029 0 -2867 -3 -2894 48 -28 52 -11 81 69 123 l45 24 1080 5
c594 3 1081 7 1083 8 5 4 2 32 -9 82 -9 44 -16 54 -43 65 -44 18 -116 26 -300
34 l-161 7 75 73 c243 235 577 369 985 394 28 2 55 4 60 5 6 1 54 -3 107 -8z
m-1892 -1232 l0 -129 -335 1 -335 2 -4 -96 -4 -96 259 0 259 0 0 -72 c0 -40 3
-97 7 -126 l6 -53 -267 3 -266 3 0 -103 0 -103 345 3 345 3 0 -135 0 -135
-477 3 c-262 1 -479 5 -482 8 -10 10 -13 524 -6 838 l7 311 474 1 474 1 0
-129z m668 117 c2 -2 5 -202 5 -445 l2 -441 281 3 282 3 6 -35 c3 -19 6 -82 6
-139 l0 -103 -31 6 c-17 3 -211 6 -430 6 l-399 0 0 581 0 582 137 -7 c76 -4
139 -9 141 -11z m1222 -571 l0 -581 -142 5 c-79 2 -145 6 -148 9 -8 7 -13 839
-5 997 l7 156 144 -2 144 -3 0 -581z m1400 450 l0 -137 -97 7 c-54 3 -135 7
-181 7 l-83 2 1 -452 0 -451 -145 0 -145 0 0 451 0 450 -182 -2 -183 -3 -9 55
c-5 31 -5 90 -1 132 l7 77 509 0 509 0 0 -136z m1270 4 l0 -133 -330 3 -330 3
0 -28 c0 -15 -3 -58 -7 -95 l-6 -68 277 0 276 0 0 -126 0 -125 -274 3 -273 3
0 -100 1 -100 332 0 332 0 6 -44 c3 -24 6 -87 6 -139 l0 -95 -46 7 c-26 3
-242 6 -480 6 l-434 0 0 564 c0 310 3 571 6 580 5 14 57 16 475 16 l469 0 0
-132z m478 -368 c17 -11 32 -25 32 -32 0 -6 -6 -4 -13 5 -7 10 -30 24 -52 32
-23 8 -31 14 -20 15 11 0 35 -9 53 -20z m-395 -916 c104 -53 101 -114 -8 -165
-38 -18 -91 -19 -1140 -20 -605 -1 -1145 -5 -1200 -9 -60 -4 -80 -7 -50 -9 36
-1 46 -4 35 -11 -13 -8 -10 -19 20 -77 34 -65 37 -68 80 -76 25 -4 151 -9 280
-11 129 -2 238 -4 243 -5 39 -7 -129 -153 -279 -241 -333 -197 -656 -271
-1004 -231 -261 31 -570 147 -772 291 -86 61 -178 149 -178 170 0 6 26 10 63
11 34 0 150 4 258 7 l195 7 27 30 c42 48 44 50 66 93 11 22 29 43 38 45 23 6
-253 8 -1292 9 -467 0 -901 4 -962 8 -127 10 -176 28 -199 72 -14 27 -14 32 0
54 22 32 59 55 110 68 30 8 877 10 2840 8 2552 -2 2800 -3 2829 -18z m-1563
-557 c0 -2 -15 -13 -32 -26 l-33 -22 28 25 c26 24 37 31 37 23z"/>
<path d="M5052 6834 c-64 -32 -88 -61 -108 -132 -16 -54 -16 -57 11 -146 15
-50 36 -103 46 -117 31 -44 82 -62 158 -56 112 8 131 24 163 142 31 111 33
147 10 192 -40 78 -134 143 -208 143 -11 0 -43 -12 -72 -26z m113 -243 c-3 -6
-18 -11 -33 -10 l-27 1 30 13 c32 14 41 13 30 -4z"/>
<path d="M5032 4325 c-49 -22 -86 -106 -90 -210 -3 -76 -2 -83 28 -127 17 -26
52 -61 78 -78 41 -28 54 -31 99 -28 98 8 179 89 190 190 4 41 -1 72 -21 136
-39 124 -40 121 52 125 42 1 -8 4 -113 5 -146 1 -198 -2 -223 -13z"/>
</g>
</svg>
