<?xml version="1.0" standalone="no"?>
<!DOCTYPE svg PUBLIC "-//W3C//DTD SVG 20010904//EN"
 "http://www.w3.org/TR/2001/REC-SVG-20010904/DTD/svg10.dtd">
<svg version="1.0" xmlns="http://www.w3.org/2000/svg"
 width="1024.000000pt" height="1024.000000pt" viewBox="0 0 1024.000000 1024.000000"
 preserveAspectRatio="xMidYMid meet">

<g transform="translate(0.000000,1024.000000) scale(0.100000,-0.100000)"
fill="#000000" stroke="none">
<path d="M5305 7605 l0 -185 50 0 c167 0 498 -97 685 -202 91 -51 231 -140
292 -186 230 -173 451 -463 565 -743 80 -195 142 -425 143 -526 l0 -43 171 0
172 0 -7 68 c-13 133 -59 359 -97 476 -98 299 -299 631 -524 865 -329 342
-815 582 -1310 646 -65 8 -124 15 -130 15 -6 0 -10 -63 -10 -185z"/>
<path d="M4840 7765 c-497 -84 -957 -310 -1270 -624 -362 -363 -575 -805 -634
-1313 l-12 -108 171 0 172 0 12 100 c15 126 78 359 129 481 22 52 41 99 43
104 5 12 76 128 127 207 206 316 565 585 960 718 165 55 276 79 403 87 l106 6
-1 178 -1 179 -65 -1 c-36 -1 -99 -7 -140 -14z"/>
<path d="M4895 7210 c-242 -37 -502 -140 -730 -291 -138 -91 -333 -283 -421
-415 -147 -219 -220 -413 -269 -706 l-12 -78 172 0 172 0 6 68 c15 156 82 342
169 468 29 42 63 91 74 108 32 48 178 179 279 251 114 81 216 135 346 184 130
47 192 62 294 70 64 5 79 9 76 21 -3 8 -4 88 -3 178 2 148 0 162 -16 161 -9 0
-71 -9 -137 -19z"/>
<path d="M5310 7051 l0 -177 93 -11 c198 -23 464 -145 644 -293 223 -184 401
-492 445 -772 l12 -73 171 0 171 -1 -12 86 c-40 264 -108 444 -250 660 -120
183 -255 320 -451 459 -219 156 -444 246 -703 281 -47 6 -93 13 -102 15 -17 3
-18 -11 -18 -174z"/>
<path d="M2935 5365 c53 -492 270 -942 633 -1310 120 -122 203 -190 350 -288
217 -145 425 -237 697 -307 448 -116 929 -84 1368 91 281 112 517 264 728 470
75 74 219 241 239 279 6 11 40 61 76 111 36 50 72 106 80 125 8 19 28 57 45
84 99 161 195 484 223 748 l5 52 -174 0 -175 0 0 -37 c0 -84 -80 -349 -157
-517 -151 -332 -384 -605 -701 -817 -129 -86 -237 -138 -406 -195 -244 -81
-434 -110 -676 -101 -435 15 -796 151 -1145 432 -147 118 -243 223 -358 390
-156 229 -273 518 -298 741 l-13 103 -173 3 -174 3 6 -60z"/>
<path d="M3476 5380 c48 -283 131 -490 283 -713 246 -358 691 -637 1111 -696
313 -44 525 -30 780 51 227 73 439 189 615 338 103 88 226 227 285 325 13 22
38 58 55 80 41 55 118 212 154 318 31 90 71 264 71 311 l0 26 -165 0 c-124 0
-167 -3 -169 -12 -2 -7 -12 -45 -21 -85 -21 -93 -78 -234 -138 -345 -200 -367
-513 -589 -957 -679 -90 -18 -126 -20 -250 -15 -80 3 -174 10 -209 16 -172 29
-441 145 -586 252 -102 76 -256 232 -308 315 -99 155 -170 319 -202 469 l-17
81 -169 -1 -169 -1 6 -35z"/>
</g>
</svg>
